<?xml version="1.0" encoding="UTF-8" standalone="no" ?><!DOCTYPE svg PUBLIC "-//W3C//DTD SVG 1.1//EN" "http://www.w3.org/Graphics/SVG/1.1/DTD/svg11.dtd">
<svg xmlns="http://www.w3.org/2000/svg" xmlns:xlink="http://www.w3.org/1999/xlink" version="1.1" width="515" height="310" xml:space="preserve"><desc>Created with Fabric.js 1.6.0-rc.1</desc><defs></defs><rect x="-257.5" y="-155.18240203764614" rx="0" ry="0" width="515" height="310.3648040752923" style="stroke: none; stroke-width: 1; stroke-dasharray: none; stroke-linecap: butt; stroke-linejoin: miter; stroke-miterlimit: 10; fill: #262626; fill-rule: nonzero; opacity: 1;" transform="translate(258 155.68)"/>
<g transform="translate(257.5 155.18) scale(2.38 2.38)">
<g transform="translate(0 24.03) scale(0.41 0.41)">
	<g transform="translate(0.17 0.17)">
		<text font-family="Anton" font-size="95" font-weight="normal" style="stroke: none; stroke-width: 0.3333333333333333; stroke-dasharray: none; stroke-linecap: butt; stroke-linejoin: miter; stroke-miterlimit: 10; fill: #f5f8b5; fill-rule: nonzero; opacity: 1;" ><tspan x="-244.62" y="21.34" fill="#f5f8b5">Media House</tspan></text>
	</g>
</g>
<g transform="translate(1.82 47.08) scale(0.63 0.63)">
	<g transform="translate(0.17 0.17)">
		<text font-family="Lexend Tera" font-size="24" font-weight="normal" style="stroke: none; stroke-width: 0.3333333333333333; stroke-dasharray: none; stroke-linecap: butt; stroke-linejoin: miter; stroke-miterlimit: 10; fill: #cf1322; fill-rule: nonzero; opacity: 1;" ><tspan x="-123.73" y="5.39" fill="#cf1322">PRODUCTIONS</tspan></text>
	</g>
</g>
<g transform="translate(-1.61 -32.53) scale(0.33 0.33)">
<g style="stroke: none; stroke-width: 1; stroke-dasharray: none; stroke-linecap: butt; stroke-linejoin: miter; stroke-miterlimit: 10; fill: none; fill-rule: nonzero; opacity: 1;" transform="translate(-64.2 -73.05)" >
<path d="M 1.1 27.4 h 2.2 c 15 0 27.9 5.4 38.7 16.2 s 16.2 23.8 16.2 38.8 c 0 15.2 -5.4 28.2 -16.2 38.9 c -10.8 10.8 -23.8 16.2 -38.9 16.2 l -0.4 -0.1 H 0.4 v 8.6 H 3 c 17.6 -0.1 32.6 -6.3 45 -18.7 c 11.1 -11 17.3 -24.1 18.4 -39.3 c -3.2 -7.6 -4.8 -15.8 -4.8 -24.6 c 0 -1.9 0.1 -3.8 0.3 -5.6 c -3.1 -7.4 -7.8 -14.2 -13.9 -20.4 C 35.5 25.1 20.6 18.8 3.3 18.8 H 1.1 V 27.4 M 3.1 47.3 H 0.5 v 8.5 h 2.6 c 7.4 0 13.6 2.6 18.8 7.8 c 5.2 5.1 7.8 11.4 7.8 18.8 c 0 7.3 -2.6 13.6 -7.8 18.8 c -5.1 5.2 -11.4 7.8 -18.8 7.8 H 0.3 v 8.6 h 2.8 c 9.7 0 18 -3.4 24.8 -10.3 c 6.9 -6.9 10.3 -15.2 10.3 -24.8 c 0 -9.7 -3.4 -18 -10.3 -24.8 C 21 50.8 12.8 47.3 3.1 47.3 M 0.9 33.6 v 8.5 h 2.2 c 11.1 0 20.6 4 28.5 11.9 c 7.9 7.8 11.8 17.3 11.8 28.4 s -4 20.6 -11.8 28.5 s -17.3 11.8 -28.5 11.8 H 0 v 8.6 h 3.1 c 13.5 0 25 -4.8 34.5 -14.4 c 9.5 -9.5 14.3 -21.1 14.3 -34.6 s -4.8 -25 -14.3 -34.5 c -9.5 -9.6 -21 -14.3 -34.5 -14.3 L 0.9 33.6 L 0.9 33.6 z" style="stroke: none; stroke-width: 1; stroke-dasharray: none; stroke-linecap: butt; stroke-linejoin: miter; stroke-miterlimit: 10; fill: #cf1322; fill-rule: nonzero; opacity: 1;" transform="" stroke-linecap="round" />
<path d="M 128.1 28.4 h -2.8 c -9.7 0 -18 3.5 -24.8 10.4 c -6.9 6.9 -10.3 15.1 -10.3 24.8 s 3.4 18 10.3 24.9 c 6.8 6.8 15.1 10.3 24.8 10.3 h 2.6 v -8.6 h -2.6 c -7.3 0.1 -13.5 -2.5 -18.8 -7.8 c -5.2 -5.2 -7.8 -11.5 -7.8 -18.8 c 0 -7.4 2.6 -13.6 7.8 -18.8 c 5.1 -5.2 11.4 -7.8 18.8 -7.8 h 2.8 V 28.4 M 128.4 14.6 h -3.1 c -13.5 0.1 -25 4.9 -34.5 14.4 S 76.5 50 76.5 63.5 s 4.8 25 14.3 34.6 s 21 14.3 34.5 14.3 h 2.1 v -8.6 h -2.1 c -11.1 0 -20.6 -3.9 -28.5 -11.8 C 89 84.1 85 74.7 85 63.6 S 89 43 96.8 35 c 7.8 -7.9 17.3 -11.8 28.5 -11.8 h 3.1 L 128.4 14.6 M 125.3 8.5 h 2.6 V 0 h -2.6 c -17.5 0 -32.5 6.2 -45 18.6 c -11 11.1 -17.2 24.2 -18.4 39.3 c -0.2 1.8 -0.3 3.7 -0.3 5.6 c 0 8.8 1.6 17 4.8 24.6 c 3.1 7.4 7.7 14.2 13.9 20.3 c 12.4 12.5 27.3 18.8 44.8 18.8 h 2.2 v -8.6 h -2.2 c -15 0 -27.9 -5.4 -38.7 -16.2 C 75.6 91.6 70.2 78.6 70.2 63.6 c 0 -15.2 5.4 -28.2 16.2 -38.9 C 97.2 13.9 110.2 8.5 125.3 8.5 z" style="stroke: none; stroke-width: 1; stroke-dasharray: none; stroke-linecap: butt; stroke-linejoin: miter; stroke-miterlimit: 10; fill: #f5f8b5; fill-rule: nonzero; opacity: 1;" transform="" stroke-linecap="round" />
</g>
</g>
</g>
</svg>
