<?xml version="1.0" encoding="UTF-8" standalone="no" ?><!DOCTYPE svg PUBLIC "-//W3C//DTD SVG 1.1//EN" "http://www.w3.org/Graphics/SVG/1.1/DTD/svg11.dtd">
<svg xmlns="http://www.w3.org/2000/svg" xmlns:xlink="http://www.w3.org/1999/xlink" version="1.1" width="515" height="310" xml:space="preserve"><desc>Created with Fabric.js 1.6.0-rc.1</desc><defs></defs><rect x="-257.5" y="-155.18240203764614" rx="0" ry="0" width="515" height="310.3648040752923" style="stroke: none; stroke-width: 1; stroke-dasharray: none; stroke-linecap: butt; stroke-linejoin: miter; stroke-miterlimit: 10; fill: #262626; fill-rule: nonzero; opacity: 1;" transform="translate(258 155.68)"/>
<g transform="translate(257.5 155.18) scale(2.38 2.38)">
<g transform="translate(0 24.03) scale(0.41 0.41)">
	<g transform="translate(0.17 0.17)">
		<g    style="stroke: none; stroke-width: 0.3333333333333333; stroke-dasharray: none; stroke-linecap: butt; stroke-linejoin: miter; stroke-miterlimit: 10; fill: #f5f8b5; fill-rule: nonzero; opacity: 1;" ><path d="M-226.28 21.34L-241.01 21.34L-241.01-60.27L-216.12-60.27L-209.28-10.48L-202.44-60.27L-177.36-60.27L-177.36 21.34L-192.28 21.34L-192.28-37.47L-201.68 21.34L-216.31 21.34L-226.28-37.47L-226.28 21.34ZM-150.95 22.10Q-161.69 22.10-166.34 16.21Q-171.00 10.32-171.00-1.37L-171.00-1.37L-171.00-29.29Q-171.00-38.89-165.49-43.92Q-159.97-48.96-150.09-48.96L-150.09-48.96Q-130.05-48.96-130.05-29.29L-130.05-29.29L-130.05-24.26Q-130.05-16.66-130.24-11.91L-130.24-11.91L-154.37-11.91L-154.37 1.58Q-154.37 5.19-153.61 7.23Q-152.85 9.28-150.38 9.28L-150.38 9.28Q-148.48 9.28-147.67 8.13Q-146.87 6.99-146.72 5.52Q-146.58 4.05-146.58 1.20L-146.58 1.20L-146.58-5.55L-130.05-5.55L-130.05-1.55Q-130.05 10.61-134.75 16.35Q-139.45 22.10-150.95 22.10L-150.95 22.10ZM-154.47-20.18L-146.58-20.18L-146.58-29.11Q-146.58-36.61-150.28-36.61L-150.28-36.61Q-154.47-36.61-154.47-29.11L-154.47-29.11L-154.47-20.18ZM-110.39 22.10Q-116.47 22.10-119.55 19.20Q-122.64 16.30-123.64 11.51Q-124.64 6.71-124.64-0.80L-124.64-0.80L-124.45-32.14Q-124.45-39.56-120.69-44.26Q-116.94-48.96-110.10-48.96L-110.10-48.96Q-103.36-48.96-100.03-44.49L-100.03-44.49L-100.03-60.74L-83.41-60.74L-83.41 21.34L-100.03 21.34L-100.03 13.93Q-101.45 18.02-103.88 20.06Q-106.30 22.10-110.39 22.10L-110.39 22.10ZM-104.02 9.08Q-101.55 9.08-100.79 6.66Q-100.03 4.24-100.03 0.16L-100.03 0.16L-100.03-2.79L-100.03-28.92Q-100.03-31.96-100.89-34.05Q-101.74-36.14-103.92-36.14L-103.92-36.14Q-106.39-36.14-107.20-34.19Q-108.01-32.24-108.01-28.92L-108.01-28.92L-108.01 0.34Q-108.01 9.08-104.02 9.08L-104.02 9.08ZM-60.22-52.86L-76.85-52.86L-76.85-64.44L-60.22-64.44L-60.22-52.86ZM-60.22 21.34L-76.85 21.34L-76.85-48.20L-60.22-48.20L-60.22 21.34ZM-41.03 22.10Q-49.11 22.10-52.10 16.73Q-55.09 11.37-55.09 1.39L-55.09 1.39Q-55.09-6.78-52.96-11.15Q-50.82-15.52-47.02-17.56Q-43.22-19.61-35.43-22.07L-35.43-22.07L-30.87-23.60L-30.87-23.79L-30.87-30.72Q-30.87-33.47-31.96-34.95Q-33.05-36.42-34.57-36.42L-34.57-36.42Q-35.91-36.42-36.90-35.19Q-37.90-33.95-37.90-31.86L-37.90-31.86L-37.90-27.68L-54.05-27.68L-54.05-29.96Q-54.05-40.22-49.25-44.59Q-44.45-48.96-33.63-48.96L-33.63-48.96Q-24.98-48.96-19.56-44.45Q-14.15-39.94-14.15-31.67L-14.15-31.67L-14.15 21.34L-30.68 21.34L-30.68 13.07Q-31.91 17.35-34.62 19.73Q-37.33 22.10-41.03 22.10L-41.03 22.10ZM-34.48 9.18Q-32.58 9.18-31.77 7.61Q-30.96 6.04-30.96 3.77L-30.96 3.77L-30.96-15.61Q-34.67-14.19-36.43-12.00Q-38.19-9.82-38.19-5.93L-38.19-5.93L-38.19 3.00Q-38.19 9.18-34.48 9.18L-34.48 9.18ZM30.98 21.34L14.73 21.34L14.73-60.27L30.98-60.27L30.98-31.10L38.67-31.10L38.67-60.27L54.92-60.27L54.92 21.34L38.67 21.34L38.67-15.71L30.98-15.71L30.98 21.34ZM82.09 22.10Q61.28 22.10 61.28 0.54L61.28 0.54L61.28-27.39Q61.28-37.28 66.84-43.12Q72.40-48.96 82.09-48.96L82.09-48.96Q91.78-48.96 97.33-43.12Q102.89-37.28 102.89-27.39L102.89-27.39L102.89 0.54Q102.89 22.10 82.09 22.10L82.09 22.10ZM82.09 9.28Q84.08 9.28 85.03 7.85Q85.98 6.42 85.98 3.95L85.98 3.95L85.98-30.06Q85.98-36.14 82.09-36.14L82.09-36.14Q78.19-36.14 78.19-30.06L78.19-30.06L78.19 3.95Q78.19 6.42 79.14 7.85Q80.09 9.28 82.09 9.28L82.09 9.28ZM122.46 22.10Q114.67 22.10 111.77 17.45Q108.88 12.79 108.88 3.57L108.88 3.57L108.88-48.20L125.60-48.20L125.60 0.25Q125.60 0.91 125.60 3.81Q125.60 6.71 126.50 7.90Q127.40 9.08 129.30 9.08L129.30 9.08Q131.87 9.08 132.53 6.95Q133.20 4.81 133.20 0.82L133.20 0.82L133.20 0.25L133.29-48.20L149.82-48.20L149.82 21.34L133.20 21.34L133.20 13.93Q131.49 18.30 129.21 20.20Q126.93 22.10 122.46 22.10L122.46 22.10ZM175.56 22.10Q154.95 22.10 154.95 1.20L154.95 1.20L155.05-4.31L171.67-4.31L171.77 3.86Q171.77 6.33 172.72 7.61Q173.67 8.89 175.85 8.89L175.85 8.89Q179.18 8.89 179.18 3.48L179.18 3.48Q179.18-0.51 177.61-2.79Q176.04-5.07 172.62-7.64L172.62-7.64L163.79-14.47Q159.23-17.99 157.23-21.74Q155.24-25.50 155.24-32.33L155.24-32.33Q155.24-37.66 158.04-41.41Q160.84-45.16 165.50-47.06Q170.15-48.96 175.85-48.96L175.85-48.96Q196.09-48.96 196.09-28.82L196.09-28.82L196.09-27.49L178.89-27.49L178.89-30.15Q178.89-32.62 178.08-34.38Q177.28-36.14 175.38-36.14L175.38-36.14Q173.67-36.14 172.76-35.14Q171.86-34.14 171.86-32.43L171.86-32.43Q171.86-28.63 174.81-26.54L174.81-26.54L185.06-19.04Q190.58-14.95 193.52-10.15Q196.47-5.36 196.47 1.96L196.47 1.96Q196.47 11.65 190.96 16.88Q185.44 22.10 175.56 22.10L175.56 22.10ZM221.07 22.10Q210.34 22.10 205.68 16.21Q201.03 10.32 201.03-1.37L201.03-1.37L201.03-29.29Q201.03-38.89 206.54-43.92Q212.05-48.96 221.93-48.96L221.93-48.96Q241.97-48.96 241.97-29.29L241.97-29.29L241.97-24.26Q241.97-16.66 241.78-11.91L241.78-11.91L217.65-11.91L217.65 1.58Q217.65 5.19 218.41 7.23Q219.17 9.28 221.64 9.28L221.64 9.28Q223.54 9.28 224.35 8.13Q225.16 6.99 225.30 5.52Q225.44 4.05 225.44 1.20L225.44 1.20L225.44-5.55L241.97-5.55L241.97-1.55Q241.97 10.61 237.27 16.35Q232.56 22.10 221.07 22.10L221.07 22.10ZM217.56-20.18L225.44-20.18L225.44-29.11Q225.44-36.61 221.74-36.61L221.74-36.61Q217.56-36.61 217.56-29.11L217.56-29.11L217.56-20.18Z"/></g>
	</g>
</g>
<g transform="translate(1.82 47.08) scale(0.63 0.63)">
	<g transform="translate(0.17 0.17)">
		<g    style="stroke: none; stroke-width: 0.3333333333333333; stroke-dasharray: none; stroke-linecap: butt; stroke-linejoin: miter; stroke-miterlimit: 10; fill: #cf1322; fill-rule: nonzero; opacity: 1;" ><path d="M-119.77-11.41L-110.55-11.41Q-109.09-11.41-107.88-10.73Q-106.67-10.04-105.93-8.88Q-105.20-7.71-105.20-6.25L-105.20-6.25Q-105.20-4.74-105.98-3.51Q-106.76-2.29-108.07-1.57Q-109.38-0.85-110.94-0.85L-110.94-0.85L-117.18-0.85L-117.18 5.39L-119.77 5.39L-119.77-11.41ZM-117.18-3.35L-111.13-3.35Q-110.27-3.35-109.53-3.74Q-108.80-4.14-108.37-4.80Q-107.94-5.46-107.94-6.25L-107.94-6.25Q-107.94-6.99-108.37-7.59Q-108.80-8.19-109.53-8.55Q-110.27-8.91-111.13-8.91L-111.13-8.91L-117.18-8.91L-117.18-3.35ZM-83.72-6.20L-83.72-6.20Q-83.72-5.05-84.21-4.04Q-84.71-3.03-85.57-2.29Q-86.43-1.55-87.54-1.16L-87.54-1.16L-82.81 5.41L-86.03 5.39L-90.47-0.83L-95.84-0.83L-95.84 5.39L-98.43 5.39L-98.43-11.41L-89.15-11.41Q-87.71-11.41-86.47-10.73Q-85.23-10.04-84.48-8.88Q-83.72-7.71-83.72-6.20ZM-89.82-8.91L-89.82-8.91L-95.84-8.91L-95.84-3.32L-89.67-3.32Q-88.79-3.32-88.05-3.72Q-87.32-4.11-86.89-4.77Q-86.46-5.43-86.46-6.23L-86.46-6.23Q-86.46-6.99-86.91-7.61Q-87.37-8.22-88.14-8.57Q-88.91-8.91-89.82-8.91ZM-57.66-3.01L-57.66-3.01Q-57.66-1.19-58.38 0.39Q-59.10 1.96-60.41 3.13Q-61.71 4.31-63.50 4.97Q-65.29 5.63-67.43 5.63L-67.43 5.63Q-69.56 5.63-71.36 4.97Q-73.16 4.31-74.46 3.13Q-75.75 1.96-76.47 0.39Q-77.19-1.19-77.19-3.01L-77.19-3.01Q-77.19-4.83-76.47-6.41Q-75.75-7.98-74.46-9.15Q-73.16-10.33-71.36-10.99Q-69.56-11.65-67.43-11.65L-67.43-11.65Q-65.29-11.65-63.50-10.99Q-61.71-10.33-60.41-9.15Q-59.10-7.98-58.38-6.41Q-57.66-4.83-57.66-3.01ZM-60.30-3.01L-60.30-3.01Q-60.30-4.76-61.21-6.14Q-62.12-7.52-63.73-8.33Q-65.34-9.13-67.43-9.13L-67.43-9.13Q-69.54-9.13-71.15-8.33Q-72.75-7.52-73.65-6.14Q-74.55-4.76-74.55-3.01L-74.55-3.01Q-74.55-1.26-73.65 0.12Q-72.75 1.50-71.15 2.31Q-69.54 3.11-67.43 3.11L-67.43 3.11Q-65.34 3.11-63.73 2.31Q-62.12 1.50-61.21 0.11Q-60.30-1.28-60.30-3.01ZM-51.01-11.41L-42.90-11.41Q-40.64-11.41-38.94-10.75Q-37.23-10.09-36.08-8.93Q-34.93-7.76-34.35-6.24Q-33.78-4.71-33.78-3.01L-33.78-3.01Q-33.78-0.71-34.80 1.20Q-35.82 3.11-37.86 4.25Q-39.90 5.39-42.90 5.39L-42.90 5.39L-51.01 5.39L-51.01-11.41ZM-48.42 2.89L-43.02 2.89Q-40.71 2.89-39.29 2.10Q-37.86 1.31-37.19-0.03Q-36.51-1.38-36.51-3.01L-36.51-3.01Q-36.51-4.59-37.19-5.94Q-37.86-7.28-39.30-8.10Q-40.74-8.91-43.02-8.91L-43.02-8.91L-48.42-8.91L-48.42 2.89ZM-13.64-11.43L-11.17-11.43L-11.17-2.34Q-11.17-0.06-12.19 1.72Q-13.21 3.49-15.03 4.51Q-16.86 5.53-19.28 5.53L-19.28 5.53Q-21.73 5.53-23.55 4.51Q-25.38 3.49-26.39 1.72Q-27.39-0.06-27.39-2.34L-27.39-2.34L-27.39-11.43L-24.80-11.43L-24.80-2.46Q-24.80-0.85-24.07 0.39Q-23.34 1.62-22.08 2.32Q-20.82 3.01-19.28 3.01L-19.28 3.01Q-17.67 3.01-16.40 2.32Q-15.13 1.62-14.39 0.39Q-13.64-0.85-13.64-2.46L-13.64-2.46L-13.64-11.43ZM10.60 0.83L11.85 2.99Q11.20 3.54 10.09 4.17Q8.99 4.79 7.57 5.21Q6.16 5.63 4.55 5.63L4.55 5.63Q2.58 5.63 0.88 5.02Q-0.83 4.41-2.10 3.28Q-3.37 2.15-4.09 0.55Q-4.81-1.04-4.81-3.01L-4.81-3.01Q-4.81-4.86-4.07-6.42Q-3.32-7.98-2.01-9.13Q-0.71-10.28 1.00-10.92Q2.70-11.55 4.60-11.55L4.60-11.55Q6.16-11.55 7.60-11.15Q9.04-10.74 10.18-10.09Q11.32-9.44 12.01-8.72L12.01-8.72L10.43-6.61Q9.21-7.64 7.73-8.33Q6.25-9.01 4.41-9.01L4.41-9.01Q3.16-9.01 1.98-8.59Q0.81-8.17-0.13-7.39Q-1.07-6.61-1.62-5.51Q-2.17-4.40-2.17-3.01L-2.17-3.01Q-2.17-1.50-1.59-0.36Q-1.02 0.78-0.05 1.55Q0.93 2.32 2.19 2.70Q3.45 3.09 4.79 3.09L4.79 3.09Q6.11 3.09 7.18 2.74Q8.25 2.39 9.09 1.86Q9.93 1.33 10.60 0.83L10.60 0.83ZM25.33 5.39L22.74 5.39L22.74-8.91L16.69-8.91L16.69-11.41L31.53-11.41L31.53-8.91L25.33-8.91L25.33 5.39ZM48.30 2.85L48.30 5.39L37.60 5.39L37.60 2.85L41.65 2.85L41.65-8.87L37.60-8.87L37.60-11.41L48.30-11.41L48.30-8.87L44.25-8.87L44.25 2.85L48.30 2.85ZM74.17-3.01L74.17-3.01Q74.17-1.19 73.45 0.39Q72.73 1.96 71.43 3.13Q70.12 4.31 68.33 4.97Q66.54 5.63 64.41 5.63L64.41 5.63Q62.27 5.63 60.47 4.97Q58.67 4.31 57.37 3.13Q56.08 1.96 55.36 0.39Q54.64-1.19 54.64-3.01L54.64-3.01Q54.64-4.83 55.36-6.41Q56.08-7.98 57.37-9.15Q58.67-10.33 60.47-10.99Q62.27-11.65 64.41-11.65L64.41-11.65Q66.54-11.65 68.33-10.99Q70.12-10.33 71.43-9.15Q72.73-7.98 73.45-6.41Q74.17-4.83 74.17-3.01ZM71.53-3.01L71.53-3.01Q71.53-4.76 70.62-6.14Q69.71-7.52 68.10-8.33Q66.49-9.13 64.41-9.13L64.41-9.13Q62.29-9.13 60.69-8.33Q59.08-7.52 58.18-6.14Q57.28-4.76 57.28-3.01L57.28-3.01Q57.28-1.26 58.18 0.12Q59.08 1.50 60.69 2.31Q62.29 3.11 64.41 3.11L64.41 3.11Q66.49 3.11 68.10 2.31Q69.71 1.50 70.62 0.11Q71.53-1.28 71.53-3.01ZM95.63-5.89L95.63-11.41L98.22-11.41L98.22 5.39L95.65 5.39L82.98-7.74Q83.13-6.20 83.27-4.67Q83.41-3.13 83.41-1.59L83.41-1.59L83.41 5.39L80.82 5.39L80.82-11.41L83.34-11.41L96.04 2.05Q95.87 0.88 95.79-0.50Q95.70-1.88 95.67-3.27Q95.63-4.67 95.63-5.89L95.63-5.89ZM104.87 2.37L106.55 0.23Q107.87 1.69 109.36 2.50Q110.85 3.30 112.93 3.30L112.93 3.30Q114.09 3.30 115.17 3.01Q116.25 2.73 116.93 2.14Q117.61 1.55 117.61 0.64L117.61 0.64Q117.61-0.15 117.00-0.61Q116.39-1.07 115.21-1.32Q114.04-1.57 112.38-1.79L112.38-1.79Q110.34-2.07 108.84-2.66Q107.34-3.25 106.53-4.25Q105.71-5.24 105.71-6.73L105.71-6.73Q105.71-8.29 106.67-9.38Q107.63-10.47 109.25-11.06Q110.87-11.65 112.84-11.65L112.84-11.65Q115.29-11.65 117.07-10.88Q118.86-10.11 119.87-8.70L119.87-8.70L118.14-6.83Q117.25-7.93 115.91-8.63Q114.57-9.32 112.77-9.32L112.77-9.32Q110.94-9.32 109.72-8.71Q108.49-8.10 108.49-6.97L108.49-6.97Q108.49-6.11 109.09-5.59Q109.69-5.07 110.77-4.79Q111.85-4.50 113.29-4.28L113.29-4.28Q114.69-4.11 115.96-3.83Q117.23-3.54 118.23-3.06Q119.22-2.58 119.81-1.77Q120.40-0.97 120.40 0.25L120.40 0.25Q120.40 1.89 119.47 3.10Q118.55 4.31 116.86 4.97Q115.17 5.63 112.86 5.63L112.86 5.63Q110.39 5.63 108.40 4.86Q106.41 4.09 104.87 2.37L104.87 2.37Z"/></g>
	</g>
</g>
<g transform="translate(-1.61 -32.53) scale(0.33 0.33)">
<g style="stroke: none; stroke-width: 1; stroke-dasharray: none; stroke-linecap: butt; stroke-linejoin: miter; stroke-miterlimit: 10; fill: none; fill-rule: nonzero; opacity: 1;" transform="translate(-64.2 -73.05)" >
<path d="M 1.1 27.4 h 2.2 c 15 0 27.9 5.4 38.7 16.2 s 16.2 23.8 16.2 38.8 c 0 15.2 -5.4 28.2 -16.2 38.9 c -10.8 10.8 -23.8 16.2 -38.9 16.2 l -0.4 -0.1 H 0.4 v 8.6 H 3 c 17.6 -0.1 32.6 -6.3 45 -18.7 c 11.1 -11 17.3 -24.1 18.4 -39.3 c -3.2 -7.6 -4.8 -15.8 -4.8 -24.6 c 0 -1.9 0.1 -3.8 0.3 -5.6 c -3.1 -7.4 -7.8 -14.2 -13.9 -20.4 C 35.5 25.1 20.6 18.8 3.3 18.8 H 1.1 V 27.4 M 3.1 47.3 H 0.5 v 8.5 h 2.6 c 7.4 0 13.6 2.6 18.8 7.8 c 5.2 5.1 7.8 11.4 7.8 18.8 c 0 7.3 -2.6 13.6 -7.8 18.8 c -5.1 5.2 -11.4 7.8 -18.8 7.8 H 0.3 v 8.6 h 2.8 c 9.7 0 18 -3.4 24.8 -10.3 c 6.9 -6.9 10.3 -15.2 10.3 -24.8 c 0 -9.7 -3.4 -18 -10.3 -24.8 C 21 50.8 12.8 47.3 3.1 47.3 M 0.9 33.6 v 8.5 h 2.2 c 11.1 0 20.6 4 28.5 11.9 c 7.9 7.8 11.8 17.3 11.8 28.4 s -4 20.6 -11.8 28.5 s -17.3 11.8 -28.5 11.8 H 0 v 8.6 h 3.1 c 13.5 0 25 -4.8 34.5 -14.4 c 9.5 -9.5 14.3 -21.1 14.3 -34.6 s -4.8 -25 -14.3 -34.5 c -9.5 -9.6 -21 -14.3 -34.5 -14.3 L 0.9 33.6 L 0.9 33.6 z" style="stroke: none; stroke-width: 1; stroke-dasharray: none; stroke-linecap: butt; stroke-linejoin: miter; stroke-miterlimit: 10; fill: #cf1322; fill-rule: nonzero; opacity: 1;" transform="" stroke-linecap="round" />
<path d="M 128.1 28.4 h -2.8 c -9.7 0 -18 3.5 -24.8 10.4 c -6.9 6.9 -10.3 15.1 -10.3 24.8 s 3.4 18 10.3 24.9 c 6.8 6.8 15.1 10.3 24.8 10.3 h 2.6 v -8.6 h -2.6 c -7.3 0.1 -13.5 -2.5 -18.8 -7.8 c -5.2 -5.2 -7.8 -11.5 -7.8 -18.8 c 0 -7.4 2.6 -13.6 7.8 -18.8 c 5.1 -5.2 11.4 -7.8 18.8 -7.8 h 2.8 V 28.4 M 128.4 14.6 h -3.1 c -13.5 0.1 -25 4.9 -34.5 14.4 S 76.5 50 76.5 63.5 s 4.8 25 14.3 34.6 s 21 14.3 34.5 14.3 h 2.1 v -8.6 h -2.1 c -11.1 0 -20.6 -3.9 -28.5 -11.8 C 89 84.1 85 74.7 85 63.6 S 89 43 96.8 35 c 7.8 -7.9 17.3 -11.8 28.5 -11.8 h 3.1 L 128.4 14.6 M 125.3 8.5 h 2.6 V 0 h -2.6 c -17.5 0 -32.5 6.2 -45 18.6 c -11 11.1 -17.2 24.2 -18.4 39.3 c -0.2 1.8 -0.3 3.7 -0.3 5.6 c 0 8.8 1.6 17 4.8 24.6 c 3.1 7.4 7.7 14.2 13.9 20.3 c 12.4 12.5 27.3 18.8 44.8 18.8 h 2.2 v -8.6 h -2.2 c -15 0 -27.9 -5.4 -38.7 -16.2 C 75.6 91.6 70.2 78.6 70.2 63.6 c 0 -15.2 5.4 -28.2 16.2 -38.9 C 97.2 13.9 110.2 8.5 125.3 8.5 z" style="stroke: none; stroke-width: 1; stroke-dasharray: none; stroke-linecap: butt; stroke-linejoin: miter; stroke-miterlimit: 10; fill: #f5f8b5; fill-rule: nonzero; opacity: 1;" transform="" stroke-linecap="round" />
</g>
</g>
</g>
</svg>
